<?xml version="1.0" standalone="no"?><!DOCTYPE svg PUBLIC "-//W3C//DTD SVG 1.1//EN" "http://www.w3.org/Graphics/SVG/1.1/DTD/svg11.dtd"><svg class="icon" width="200px" height="200.00px" viewBox="0 0 1024 1024" version="1.1" xmlns="http://www.w3.org/2000/svg"><path d="M932.980364 438.295273v381.44L466.478545 1024 0 819.735273V183.901091L466.478545 0 933.003636 183.901091v71.168h-133.422545L466.478545 123.764364 113.803636 262.818909v481.093818L466.478545 898.327273 819.2 743.912727V438.295273h-91.019636v-115.339637H1024v115.339637h-91.019636zM204.8 322.955636h113.780364v433.501091L204.8 705.512727V322.955636z m341.341091 415.232c-75.403636 0-136.541091-61.975273-136.541091-138.402909 0-76.450909 61.137455-138.426182 136.541091-138.426182s136.517818 61.975273 136.517818 138.426182c0 76.427636-61.114182 138.402909-136.517818 138.402909z" fill="#ffffff" /></svg>